<?xml version="1.0" encoding="utf-8"?>
<!-- Generator: Adobe Illustrator 18.1.1, SVG Export Plug-In . SVG Version: 6.00 Build 0)  -->
<svg version="1.1" id="Layer_2" xmlns="http://www.w3.org/2000/svg" xmlns:xlink="http://www.w3.org/1999/xlink" x="0px" y="0px"
	 viewBox="-100 45.9 53.9 49.8" enable-background="new -100 45.9 53.9 49.8" xml:space="preserve">
<path opacity="0.8" fill="#0099FD" d="M-58,95.7c0,0,0.2-0.1,0.4-0.2c0.2-0.1,10.8-7.7,10.8-7.7c0.6-0.5,0.6-1,0.6-2.3V60.1
	c0-1.3,0-1.8-0.6-2.3c0,0-10.6-7.5-10.9-7.7c-0.2-0.1-0.4-0.2-0.4-0.2V95.7z"/>
<path fill="#0099FD" d="M-70,51.6v-3.4c0-1.3-1-2.3-2.3-2.3l-10.5,2c-1.3,0.3-2.3,1-2.3,2.3v3.7l-12.7,1.9c-2.3,0.4-2.3,0.3-2.3,2.3
	v29.5c0,1.9,0.2,1.9,2.3,2.3c0,0,38.8,5.9,39.1,5.9c0.3,0,0.6,0,0.6,0V49.9c0,0-0.2-0.1-0.4,0C-58.8,49.9-70,51.6-70,51.6z
	 M-82.8,51.6c0-1.4,0.5-1.6,1.2-1.7l7.8-1.4c1-0.2,1.2,0.5,1.2,1.6l0,1.9l-10.2,1.5L-82.8,51.6z"/>
</svg>
